<svg id="Capa_1" data-name="Capa 1"
    xmlns="http://www.w3.org/2000/svg" viewBox="0 0 423.27 251.45">
    <defs>
        <style>.cls-1{fill:#469fda;}.cls-1,.cls-2{opacity:0.33;}.cls-2{fill:#f4fafd;}</style>
    </defs>
    <title>Elementos de naturalezaRGB</title>
    <path class="cls-1" d="M396.08,225.19a20.42,20.42,0,0,0,2.66-10.92c0-18.1-21.83-32.78-39.93-32.78a32.75,32.75,0,0,0-27.89,15.61,60.74,60.74,0,0,0-78.69-46.44,60.76,60.76,0,0,0-113.13-42A79.66,79.66,0,0,0,23.57,179.78c0,26.72,13.17,38.72,33.36,45.41ZM209.93,194.7c.76-.22,1.51-.45,2.26-.69-.07.27-.13.54-.19.82Z"/>
    <path class="cls-1" d="M412.17,225.19c1.85-3.05,2.88-7,2.88-12,0-19.94-23.64-36.12-43.25-36.12a35.34,35.34,0,0,0-30.2,17.2c-5.72-31-32.49-54.52-64.66-54.52a64.83,64.83,0,0,0-20.57,3.35,68.1,68.1,0,0,0,1.86-15.82c0-37-29.46-66.95-65.81-66.95a65.67,65.67,0,0,0-58.58,36.47A84.82,84.82,0,0,0,95,87.38c-47.66,0-86.29,39.3-86.29,87.78,0,29.44,14.26,42.66,36.13,50ZM210.56,191.6c.82-.24,1.63-.5,2.44-.77-.07.3-.14.6-.2.91Z"/>
    <path class="cls-2" d="M342.08,225.19a16.43,16.43,0,0,0,2.15-8.82c0-14.63-17.64-26.48-32.26-26.48a26.42,26.42,0,0,0-22.53,12.61A49.1,49.1,0,0,0,225.85,165,49.09,49.09,0,0,0,134.45,131,64.36,64.36,0,0,0,41.12,188.5c0,21.59,10.64,31.29,26.95,36.69Zm-150.4-24.63c.62-.18,1.23-.36,1.83-.56-.06.22-.11.44-.16.66Z"/>
</svg>