<svg id="Capa_1" data-name="Capa 1"
    xmlns="http://www.w3.org/2000/svg" viewBox="0 0 423.27 177.68">
    <defs>
        <style>.cls-1{fill:#469fda;}.cls-1,.cls-2{opacity:0.33;}.cls-2{fill:#f4fafd;}</style>
    </defs>
    <title>Elementos de naturalezaRGB</title>
    <path class="cls-1" d="M371,139.44a21.5,21.5,0,0,0-37.37-14.54c0-.7.06-1.41.06-2.12A38.16,38.16,0,0,0,270.51,94a56.76,56.76,0,0,0-110.88-3.53,33.2,33.2,0,0,0-57,21.5,23,23,0,0,0-33.34,20.51c0,12.7,10.29,28.54,23,28.54H353A21.83,21.83,0,0,0,371,139.44Z"/>
    <path class="cls-1" d="M387.48,137.21a23.73,23.73,0,0,0-41.24-16.05c.05-.77.07-1.55.07-2.33A42.12,42.12,0,0,0,276.57,87a62.63,62.63,0,0,0-122.36-3.9,36.65,36.65,0,0,0-62.95,23.73,25.35,25.35,0,0,0-36.79,22.64c0,14,11.36,31.49,25.37,31.49H367.55A24.1,24.1,0,0,0,387.48,137.21Z"/>
    <path class="cls-2" d="M339.85,143.88a17.06,17.06,0,0,0-29.65-11.53c0-.56,0-1.12,0-1.68a30.29,30.29,0,0,0-50.14-22.88,45,45,0,0,0-88-2.8,26.34,26.34,0,0,0-45.25,17.06,18.22,18.22,0,0,0-26.46,16.28c0,10.07,8.17,22.64,18.25,22.64H325.51A17.33,17.33,0,0,0,339.85,143.88Z"/>
</svg>