<svg id="Capa_1" data-name="Capa 1"
    xmlns="http://www.w3.org/2000/svg" viewBox="0 0 423.27 197.01">
    <defs>
        <style>.cls-1{fill:#469fda;}.cls-1,.cls-2{opacity:0.33;}.cls-2{fill:#f4fafd;}</style>
    </defs>
    <title>Elementos de naturalezaRGB</title>
    <path class="cls-1" d="M128.68,82.34S126.84,53,181.91,53s62.72,35.87,62.72,35.87c67.61-19.35,67.61,50.4,67.61,50.4s-172.55,27.54-257,0C55.25,139.24,49.74,70.41,128.68,82.34Z"/>
    <path class="cls-1" d="M130,76.17s-1.93-32,55.91-32,65.89,39.07,65.89,39.07c71-21.08,71,54.9,71,54.9s-181.23,30-269.92,0C52.84,138.15,47.05,63.17,130,76.17Z"/>
    <path class="cls-2" d="M143.61,97.4s-1.43-23,41.64-23,49.06,28.06,49.06,28.06c52.87-15.14,52.87,39.42,52.87,39.42s-135,21.54-201,0C86.18,141.91,81.88,88.07,143.61,97.4Z"/>
</svg>