<svg id="Capa_1" data-name="Capa 1"
    xmlns="http://www.w3.org/2000/svg" viewBox="0 0 423.27 221.54">
    <defs>
        <style>.cls-1{fill:#469fda;}.cls-1,.cls-2{opacity:0.33;}.cls-2{fill:#f4fafd;}</style>
    </defs>
    <title>Elementos de naturalezaRGB</title>
    <path class="cls-1" d="M364.21,158.73c0-28.4-48.69-77.09-77.09-77.09A51.14,51.14,0,0,0,259,90,87.62,87.62,0,0,0,88.3,115.66a33.12,33.12,0,1,0-62,23.16,18,18,0,0,0-12.07,17c0,10,8.07,15.15,18,15.15H340C354.31,170.32,364.21,166.61,364.21,158.73ZM89.81,125.19c0,.14.11.28.17.42h-.15C89.83,125.47,89.81,125.33,89.81,125.19Z"/>
    <path class="cls-1" d="M353.32,159.74c0-26.06-44.68-70.74-70.74-70.74a47,47,0,0,0-25.79,7.67,80.39,80.39,0,0,0-156.65,23.55,30.39,30.39,0,1,0-56.86,21.25,16.53,16.53,0,0,0-11.08,15.6c0,9.14,7.41,13.9,16.55,13.9H331.1C344.23,170.38,353.32,167,353.32,159.74ZM101.52,129c0,.13.1.26.16.39h-.14C101.54,129.22,101.52,129.09,101.52,129Z"/>
    <path class="cls-2" d="M311.23,162.88c0-18.79-32.2-51-51-51a33.91,33.91,0,0,0-18.59,5.53,57.95,57.95,0,0,0-112.92,17,21.91,21.91,0,1,0-41,15.31,11.92,11.92,0,0,0-8,11.25c0,6.59,5.34,10,11.93,10H295.22C304.68,170.54,311.23,168.09,311.23,162.88ZM129.72,140.69l.12.28h-.1C129.74,140.87,129.72,140.78,129.72,140.69Z"/>
</svg>